<svg xmlns="http://www.w3.org/2000/svg" width="165" height="51" viewBox="0 0 165 51" fill="none"><rect width="164.335" height="50.0884" fill="#EE293D"></rect><g clip-path="url(#clip0_1290_35946)"><path d="M139.001 34.8824V14.6431H143.907L148.303 23.025V14.6431H153.107V34.8824H148.303L143.805 26.3978V34.8824H139.001ZM73.1206 14.6431H85.2846L83.8536 19.1407H80.6337V34.8824H75.8294V19.1407H71.6384L73.1206 14.6431ZM64.2786 27.7271H70.1051V23.2295H64.2786V19.1407H70.1051V14.6431H59.4743V34.8824H64.2786V27.7271ZM11.2269 18.2207L13.8335 14.6431H23.391V19.1407H16.7468V30.3848H23.391V34.8824H13.8335L11.2269 31.3048V18.2207ZM110.737 32.7354L113.957 25.1205V34.8824H118.761V14.6431H113.037L109.868 22.1051L106.7 14.6431H100.975V34.8824H105.78V25.1205L108.999 32.7354H110.737ZM86.9201 29.8733L85.3357 34.8824H97.0909L98.9309 29.1067L92.1333 19.1407H97.2443L98.6753 14.6431H87.6357L86.1024 19.2429L93.3599 29.8733H86.9201ZM36.8328 27.2156L39.3372 24.4561V18.2207L36.7306 14.6431H26.1509V34.8824H30.9552V28.4426H31.9774L35.4528 34.8824H40.9727L36.8328 27.2156ZM34.2262 23.6895H30.9552V19.1407H34.2262V23.6895ZM53.2901 14.6431H45.317L42.7104 18.2207V34.8824H47.5147V28.9533H51.0924V34.8824H55.8967V18.2207L53.2901 14.6431ZM51.0924 24.4561H47.5147V19.1407H51.0924V24.4561ZM132.714 14.6431H124.741L122.135 18.2207V34.8824H126.939V28.9533H130.517V34.8824H135.321V18.2207L132.714 14.6431ZM130.517 24.4561H126.939V19.1407H130.517V24.4561Z" fill="white"></path></g><rect x="1.40747" y="1.40698" width="161.521" height="47.2744" stroke="#EE293D" stroke-width="2.81395"></rect><defs><clipPath id="clip0_1290_35946"><rect width="141.88" height="20.2605" fill="white" transform="translate(11.2277 14.6326)"></rect></clipPath></defs></svg>