<svg xmlns="http://www.w3.org/2000/svg" width="169" height="30" viewBox="0 0 169 30" fill="none"><g clip-path="url(#clip0_1291_36365)"><path d="M163.704 5.82878C163.704 4.34306 164.887 3.14307 166.379 3.14307C167.844 3.14307 169.027 4.34306 169.027 5.82878C169.027 7.31449 167.844 8.54307 166.379 8.54307C164.915 8.54307 163.704 7.31449 163.704 5.82878ZM168.548 5.82878C168.548 4.62878 167.591 3.65735 166.379 3.65735C165.168 3.65735 164.211 4.62878 164.211 5.82878C164.211 7.05735 165.168 8.02878 166.379 8.02878C167.591 8.02878 168.548 7.05735 168.548 5.82878ZM167.703 7.28592H167.055L166.408 6.05735H165.844V7.28592H165.281V4.37164H166.661C166.915 4.37164 167.224 4.37164 167.45 4.5145C167.703 4.68592 167.788 4.97164 167.788 5.28592C167.788 5.82878 167.506 6.02878 166.999 6.08592L167.703 7.28592ZM166.689 5.62878C166.999 5.62878 167.224 5.54307 167.224 5.20021C167.224 4.80021 166.802 4.80021 166.548 4.80021H165.844V5.62878H166.689Z" fill="#ED1C2E"></path><path d="M143.03 13.6569H138.213C137.312 13.6569 136.58 14.3998 136.58 15.3141C136.58 16.2283 137.312 16.9712 138.213 16.9712H141.424V19.2569C141.424 22.114 139.115 24.4569 136.298 24.4569C134.918 24.4569 133.65 23.914 132.665 22.9426C131.707 21.9712 131.172 20.6569 131.172 19.2569V11.4855C131.172 10.0855 131.707 8.79977 132.665 7.79977C133.622 6.82834 134.918 6.28548 136.298 6.28548C138.27 6.28548 140.016 7.39977 140.889 9.1712C141.284 9.9712 142.298 10.3141 143.058 9.91405C143.452 9.71405 143.734 9.37119 143.875 8.97119C144.016 8.54262 143.988 8.11405 143.79 7.71405C142.354 4.79976 139.481 2.97119 136.27 2.97119C131.651 2.97119 127.876 6.79977 127.876 11.4855V19.2569C127.876 21.514 128.749 23.6569 130.327 25.2569C131.904 26.8569 134.017 27.7426 136.27 27.7426C138.523 27.7426 140.608 26.8569 142.185 25.2569C143.762 23.6569 144.635 21.514 144.635 19.2569V15.3426C144.692 14.3998 143.959 13.6569 143.03 13.6569Z" fill="#ED1C2E"></path><path d="M104.64 10.2856C104.64 8.4285 103.907 6.65707 102.612 5.34279C101.316 4.0285 99.5696 3.28564 97.7388 3.28564H89.2606C88.3593 3.28564 87.627 4.0285 87.627 4.94279C87.627 5.0285 87.6551 5.11421 87.6551 5.11421V25.8285C87.6551 26.7428 88.3875 27.4856 89.2888 27.4856C90.1901 27.4856 90.9225 26.7428 90.9225 25.8285V17.2856H96.1614L101.598 26.6856C101.879 27.1999 102.443 27.5142 103.006 27.5142C103.288 27.5142 103.569 27.4285 103.823 27.2856C104.611 26.8285 104.865 25.7999 104.414 25.0285L99.7668 16.9714C100.865 16.6285 101.823 16.0571 102.64 15.2285C103.935 13.9428 104.64 12.1714 104.64 10.2856ZM101.4 10.2856C101.4 12.3142 99.7668 13.9999 97.767 13.9999H90.9506V6.59993H97.7388C98.7246 6.59993 99.626 6.97136 100.302 7.68564C101.006 8.37136 101.4 9.31422 101.4 10.2856Z" fill="#ED1C2E"></path><path d="M165.421 25.2285L157.084 4.19996C156.831 3.57138 156.239 3.17139 155.507 3.17139C154.831 3.17139 154.239 3.57138 153.986 4.19996L145.648 25.2285C145.479 25.6285 145.479 26.0857 145.648 26.4857C145.817 26.8857 146.127 27.2 146.55 27.3714C147.367 27.7142 148.352 27.2857 148.662 26.4571L150.352 22.1714H160.689L162.379 26.4571C162.633 27.0857 163.224 27.4857 163.9 27.4857C164.098 27.4857 164.323 27.4571 164.52 27.3714C165.337 27.0285 165.731 26.0857 165.421 25.2285ZM159.366 18.8571H151.676L155.535 9.14281L159.366 18.8571Z" fill="#ED1C2E"></path><path d="M118.188 4.19996C117.934 3.57138 117.343 3.17139 116.61 3.17139C115.934 3.17139 115.343 3.57138 115.089 4.19996L106.752 25.2285C106.583 25.6285 106.583 26.0857 106.752 26.4857C106.921 26.8857 107.231 27.2 107.653 27.3714C108.47 27.7142 109.456 27.2857 109.766 26.4571L111.456 22.1714H121.793L123.483 26.4571C123.736 27.0857 124.328 27.4857 125.004 27.4857C125.201 27.4857 125.426 27.4571 125.624 27.3714C126.018 27.2 126.356 26.8857 126.525 26.4857C126.694 26.0857 126.694 25.6285 126.525 25.2285L118.188 4.19996ZM120.497 18.8571H112.808L116.667 9.14281L120.497 18.8571Z" fill="#ED1C2E"></path><path d="M77.6838 4.19996C77.4303 3.57138 76.8388 3.17139 76.1064 3.17139C75.4304 3.17139 74.8389 3.57138 74.5854 4.19996L66.2481 25.2285C66.0791 25.6285 66.0791 26.0857 66.2481 26.4857C66.4171 26.8857 66.7269 27.2 67.1494 27.3714C67.9663 27.7142 68.9521 27.2857 69.2619 26.4571L70.9519 22.1714H81.2609L82.9509 26.4571C83.2044 27.0857 83.7959 27.4857 84.4719 27.4857C84.6691 27.4857 84.8944 27.4571 85.0916 27.3714C85.4859 27.2 85.8239 26.8857 85.9929 26.4857C86.1619 26.0857 86.1619 25.6285 85.9929 25.2285L77.6838 4.19996ZM79.9934 18.8571H72.3039L76.1628 9.14281L79.9934 18.8571Z" fill="#ED1C2E"></path><path d="M63.2615 13.6569H58.445C57.5437 13.6569 56.8113 14.3998 56.8113 15.3141C56.8113 16.2283 57.5437 16.9712 58.445 16.9712H61.656V19.2569C61.656 22.114 59.3463 24.4569 56.5297 24.4569C55.1495 24.4569 53.882 23.914 52.8962 22.9426C51.9385 21.9712 51.4033 20.6569 51.4033 19.2569V11.4855C51.4033 10.0855 51.9385 8.79977 52.8962 7.79977C53.8538 6.82834 55.1495 6.28548 56.5297 6.28548C58.5013 6.28548 60.2477 7.39977 61.1208 9.1712C61.5152 9.9712 62.5292 10.3141 63.3178 9.91405C63.7122 9.71405 63.9938 9.37119 64.1347 8.97119C64.2755 8.54262 64.2473 8.11405 64.0502 7.71405C62.6137 4.79976 59.7407 2.97119 56.5297 2.97119C51.9103 2.97119 48.136 6.79977 48.136 11.4855V19.2569C48.136 21.5426 49.0092 23.6569 50.5865 25.2569C52.1638 26.8569 54.2763 27.7426 56.5015 27.7426C58.7548 27.7426 60.8392 26.8569 62.4447 25.2569C64.022 23.6569 64.8952 21.514 64.8952 19.2569V15.3426C64.9233 14.3998 64.191 13.6569 63.2615 13.6569Z" fill="#ED1C2E"></path><path d="M39.2072 26.9431C39.2072 28.0574 38.3059 28.9716 37.2074 28.9716H3.15389C2.05539 28.9716 1.15405 28.0574 1.15405 26.9431V3.17164C1.15405 2.05735 2.05539 1.14307 3.15389 1.14307H37.1792C38.2777 1.14307 39.1791 2.05735 39.1791 3.17164V26.9431H39.2072Z" fill="#ED1C2E"></path><path d="M37.1797 0.0288086H3.12616C1.408 0.0288086 0.027832 1.42881 0.027832 3.17167V26.9431C0.027832 28.6859 1.408 30.0859 3.12616 30.0859H37.1797C38.8978 30.0859 40.278 28.6859 40.278 26.9431V3.17167C40.3062 1.42881 38.8978 0.0288086 37.1797 0.0288086ZM39.2077 26.9431C39.2077 28.0574 38.3063 28.9717 37.2078 28.9717H3.15433C2.05583 28.9717 1.1545 28.0574 1.1545 26.9431V3.17167C1.1545 2.05738 2.05583 1.14309 3.15433 1.14309H37.1797C38.2782 1.14309 39.1795 2.05738 39.1795 3.17167V26.9431H39.2077Z" fill="black"></path><path d="M12.9006 20.0858H34.6453V27.1715H12.9006V20.0858ZM12.9006 18.9144H34.5608L33.6313 13.3715H11.3796L12.9006 18.9144ZM10.8163 12.3144H33.0961L31.547 8.4858H8.67564L10.8163 12.3144ZM7.91514 7.34294H30.026L27.2093 5.51437H6.47864L7.91514 7.34294ZM5.54914 4.80008H26.5333L23.6885 3.65723H4.08447L5.54914 4.80008Z" fill="white"></path></g><defs><clipPath id="clip0_1291_36365"><rect width="169" height="30" fill="white"></rect></clipPath></defs></svg>