<svg xmlns="http://www.w3.org/2000/svg" width="166" height="37" viewBox="0 0 166 37" fill="none"><path d="M166 0H0.00439453V36.3831H166V0Z" fill="#003B7C"></path><path d="M9.30005 27.2394V9.08881H16.1059V16.5128H20.2004V9.06152H27.0062L27.0339 27.2394H20.2004V19.87H16.1059V27.2394H9.30005Z" fill="#F39100"></path><path d="M74.4229 27.2395V9.08887H80.2327L85.5446 17.5228L90.8287 9.08887H96.1959V27.2395H89.5008V17.7138L83.2206 27.7581L77.3554 17.4409V27.2395H74.4229Z" fill="#F39100"></path><path d="M120.319 27.2395V9.08887H124.525L133.627 18.3689V9.08887H136.504V27.2395H131.911L124.054 18.4781V27.2395H120.319Z" fill="#F39100"></path><path d="M140.407 27.2395V9.08887H144.612L153.715 18.3689V9.08887H156.592V27.2395H151.999L144.114 18.4781V27.2395H140.407Z" fill="#F39100"></path><mask id="mask0_1290_36149" style="mask-type:luminance" maskUnits="userSpaceOnUse" x="0" y="0" width="166" height="37"><path d="M165.996 0H0V36.3831H165.996V0Z" fill="white"></path></mask><g mask="url(#mask0_1290_36149)"><path fill-rule="evenodd" clip-rule="evenodd" d="M52.1543 27.2395V9.08887H65.1573C67.9515 9.08887 70.1925 11.3543 70.1925 14.111C70.1925 16.4037 68.6709 18.3143 66.5682 18.9421L72.5164 27.2122H64.4103L59.1261 19.1331V27.2122H52.1543V27.2395ZM63.2207 17.6865V11.9275H59.1261V17.6865H63.2207Z" fill="#F39100"></path></g><mask id="mask1_1290_36149" style="mask-type:luminance" maskUnits="userSpaceOnUse" x="0" y="0" width="166" height="37"><path d="M165.996 0H0V36.3831H165.996V0Z" fill="white"></path></mask><g mask="url(#mask1_1290_36149)"><path fill-rule="evenodd" clip-rule="evenodd" d="M105.24 9.08887H111.465L118.409 27.2395H110.828L109.805 24.7011L102.169 24.7284L101.118 27.2395L97.9084 27.2122L105.24 9.08887ZM106.015 15.0117L103.248 21.7807H108.643L106.015 15.0117Z" fill="#F39100"></path></g><mask id="mask2_1290_36149" style="mask-type:luminance" maskUnits="userSpaceOnUse" x="0" y="0" width="166" height="37"><path d="M165.996 0H0V36.3831H165.996V0Z" fill="white"></path></mask><g mask="url(#mask2_1290_36149)"><path d="M32.5333 9.03472C32.5333 7.99754 31.7033 7.17871 30.652 7.17871C29.6007 7.17871 28.7708 8.02484 28.7708 9.03472C28.7708 10.0446 29.6007 10.8907 30.652 10.8907C31.7033 10.8907 32.5333 10.0719 32.5333 9.03472Z" fill="#F39100"></path></g><mask id="mask3_1290_36149" style="mask-type:luminance" maskUnits="userSpaceOnUse" x="0" y="0" width="166" height="37"><path d="M165.996 0H0V36.3831H165.996V0Z" fill="white"></path></mask><g mask="url(#mask3_1290_36149)"><path d="M50.5472 9.00712C50.5472 7.96994 49.7173 7.15112 48.6659 7.15112C47.6146 7.15112 46.7847 7.99724 46.7847 9.00712C46.7847 10.0443 47.6146 10.8631 48.6659 10.8631C49.7173 10.8631 50.5472 10.0443 50.5472 9.00712Z" fill="#F39100"></path></g><mask id="mask4_1290_36149" style="mask-type:luminance" maskUnits="userSpaceOnUse" x="0" y="0" width="166" height="37"><path d="M165.996 0H0V36.3831H165.996V0Z" fill="white"></path></mask><g mask="url(#mask4_1290_36149)"><path fill-rule="evenodd" clip-rule="evenodd" d="M49.3275 18.369C49.3275 13.0739 45.0116 8.76147 39.6998 8.76147C34.3879 8.76147 30.072 13.0739 30.072 18.369C30.072 23.6641 34.3879 27.9766 39.6998 27.9766C45.0116 27.9766 49.3275 23.6641 49.3275 18.369ZM37.5142 24.5921V11.873H41.6917V24.5921H37.5142Z" fill="#F39100"></path></g></svg>