<svg xmlns="http://www.w3.org/2000/svg" width="190" height="31" viewBox="0 0 190 31" fill="none"><path d="M139.008 0L151.709 30.9683H148.541L137.171 3.22982L125.769 30.9683H122.602L135.303 0H139.008ZM91.4052 0V30.9683H114.716V28.1818H94.224V16.8774H114.716V14.0909H94.224V2.78651H114.716V0H91.4052ZM32.7171 30.9683H35.5042V0H32.7171V30.9683ZM0 0V30.9683H23.3106V28.1818H2.75546V0H0ZM74.1123 0V27.3585L55.1092 0H51.4352V30.9683H54.2224V3.6098L73.2255 30.9683H76.8995V0H74.1123ZM162.129 2.78651H177.711C184.964 2.78651 184.964 16.9091 177.711 16.9091H172.992H172.58V19.6956L181.829 30.9683H185.598L176.381 19.6956H177.49C188.796 19.6956 188.796 0 177.49 0H159.342V30.9683H162.129V2.78651ZM187.561 31V29.5117H188.131V29.2584H186.706V29.5117H187.276V31H187.561ZM188.575 31V29.5117L189.05 31H189.303L189.747 29.5434V31H190V29.2584H189.588L189.177 30.6517L188.733 29.2584H188.321V31H188.575Z" fill="white"></path></svg>