<svg xmlns="http://www.w3.org/2000/svg" width="201" height="44" viewBox="0 0 201 44" fill="none"><g clip-path="url(#clip0_1290_36015)"><path d="M60.8618 19.6123C61.1667 19.6123 61.5213 19.6123 61.9184 19.6681C62.3155 19.724 62.7055 19.7589 63.0884 19.8218L64.152 20.0103L64.308 20.0452C64.7689 20.129 64.7831 20.513 64.7406 20.7434C64.7406 20.7992 64.7406 20.9458 64.6697 21.1344C64.5208 21.8325 63.45 22.9566 62.4573 22.81C61.7547 22.6921 61.0426 22.6383 60.33 22.6494C59.6721 22.6527 59.0162 22.7229 58.3729 22.8589L57.3518 23.0823C57.2762 23.0985 57.2086 23.1401 57.1608 23.2C57.1129 23.2599 57.0877 23.3343 57.0895 23.4105V39.2245C57.0904 39.2865 57.0788 39.3481 57.0553 39.4056C57.0319 39.4632 56.997 39.5156 56.9528 39.5598C56.9086 39.604 56.8559 39.639 56.7978 39.663C56.7397 39.6869 56.6773 39.6993 56.6144 39.6993H53.9623C53.8988 39.7002 53.8356 39.6886 53.7767 39.665C53.7178 39.6415 53.6642 39.6066 53.6193 39.5623C53.5743 39.518 53.5388 39.4653 53.5149 39.4073C53.491 39.3492 53.4792 39.2871 53.4802 39.2245V21.2042C53.4797 21.1054 53.5101 21.009 53.5671 20.9278C53.6242 20.8466 53.7052 20.7847 53.7992 20.7503C54.7299 20.4516 55.6768 20.2045 56.6356 20.0103C58.0263 19.7319 59.4428 19.5985 60.8618 19.6123Z" fill="white"></path><path d="M82.1848 24.0319C81.9513 23.1486 81.5118 22.331 80.9013 21.6441C80.2496 20.9414 79.431 20.4088 78.5188 20.0941C77.3489 19.7 76.1173 19.5132 74.8811 19.5425C73.7096 19.5368 72.5398 19.6326 71.3853 19.8288C70.7306 19.9348 70.0838 20.084 69.4495 20.2756C69.3436 20.3118 69.2538 20.3832 69.1956 20.4775C69.1373 20.5718 69.1143 20.6831 69.1304 20.7923L69.1942 21.2322C69.2308 21.4855 69.3193 21.7289 69.4543 21.9477C69.5892 22.1664 69.7678 22.3559 69.9792 22.5047C70.1907 22.6535 70.4306 22.7585 70.6845 22.8134C70.9383 22.8683 71.2009 22.8719 71.4562 22.824C72.4796 22.6512 73.5167 22.5694 74.555 22.5797C75.3246 22.5509 76.0915 22.6867 76.8028 22.9776C77.3404 23.2125 77.8087 23.5776 78.1642 24.0389C78.5117 24.4859 78.7539 25.0034 78.8733 25.554C79.0008 26.1179 79.065 26.6938 79.0648 27.2715V27.474C79.0649 27.5143 79.0566 27.5542 79.0403 27.5913C79.024 27.6283 79.0001 27.6616 78.9702 27.6891C78.9402 27.7166 78.9048 27.7378 78.8662 27.7512C78.8276 27.7647 78.7866 27.7701 78.7457 27.7672H73.2928C70.1444 27.7672 67.1875 30.2807 66.996 33.3528C66.9457 34.1673 67.0652 34.9835 67.3471 35.7509C67.629 36.5183 68.0674 37.2209 68.6352 37.8153C69.2031 38.4098 69.8885 38.8836 70.6492 39.2076C71.4099 39.5316 72.2299 39.6989 73.0588 39.6993H82.0855C82.2122 39.6993 82.3338 39.6503 82.424 39.5627C82.5142 39.4752 82.5659 39.3562 82.5677 39.2315V27.076C82.5783 26.0491 82.4495 25.0253 82.1848 24.0319ZM78.7315 36.8856H73.7679C73.3501 36.8856 72.9364 36.8045 72.5505 36.6468C72.1646 36.4892 71.8141 36.2582 71.519 35.967C71.224 35.6758 70.9901 35.3302 70.8309 34.9499C70.6717 34.5696 70.5902 34.1621 70.5911 33.7507C70.5911 32.9137 70.9288 32.1111 71.5299 31.5192C72.1309 30.9274 72.9462 30.5949 73.7962 30.5949H78.7032C78.7941 30.5967 78.8806 30.6336 78.9443 30.6975C79.0079 30.7615 79.0435 30.8475 79.0435 30.937V36.5225C79.0495 36.6111 79.0203 36.6984 78.9621 36.7662C78.9039 36.8339 78.8212 36.8767 78.7315 36.8856Z" fill="white"></path><path d="M46.941 24.0246C46.7046 23.1424 46.2655 22.3254 45.6576 21.6368C45.0031 20.934 44.1821 20.4015 43.2679 20.0868C42.1005 19.6926 40.8712 19.5059 39.6374 19.5352C38.4658 19.5292 37.296 19.625 36.1415 19.8215C35.4866 19.9266 34.8398 20.0759 34.2057 20.2683C34.099 20.3033 34.0084 20.3745 33.95 20.4691C33.8915 20.5637 33.8691 20.6756 33.8866 20.785L33.9504 21.2248C33.9872 21.4775 34.0754 21.7202 34.2099 21.9384C34.3444 22.1566 34.5223 22.3457 34.733 22.4945C34.9436 22.6432 35.1827 22.7484 35.4357 22.8038C35.6887 22.8592 35.9505 22.8636 36.2054 22.8167C37.2287 22.6435 38.2658 22.5618 39.3041 22.5724C40.0738 22.5436 40.8406 22.6794 41.5519 22.9703C42.0899 23.2045 42.5602 23.5668 42.9205 24.0246C43.2652 24.4733 43.5071 24.9902 43.6296 25.5397C43.757 26.1036 43.8212 26.6795 43.821 27.2572V27.4597C43.8211 27.5 43.8128 27.54 43.7965 27.577C43.7802 27.614 43.7564 27.6473 43.7264 27.6748C43.6965 27.7023 43.6611 27.7235 43.6225 27.7369C43.5838 27.7504 43.5428 27.7558 43.5019 27.7529H38.0561C34.9077 27.7529 31.9508 30.2664 31.7593 33.3385C31.708 34.1533 31.8267 34.9698 32.1083 35.7377C32.3898 36.5056 32.8281 37.2086 33.3962 37.8033C33.9643 38.3979 34.6501 38.8717 35.4113 39.1953C36.1725 39.519 36.9929 39.6856 37.8221 39.685H46.8489C46.9749 39.685 47.0957 39.6357 47.1848 39.548C47.2739 39.4603 47.324 39.3413 47.324 39.2172V27.0687C47.3344 26.0417 47.2057 25.018 46.941 24.0246ZM43.4807 36.8783H38.5525C38.1347 36.8783 37.721 36.7972 37.3351 36.6395C36.9492 36.4819 36.5987 36.2509 36.3036 35.9597C36.0086 35.6685 35.7747 35.3229 35.6155 34.9426C35.4563 34.5623 35.3748 34.1548 35.3757 33.7434C35.3757 32.9064 35.7134 32.1037 36.3145 31.5119C36.9155 30.9201 37.7308 30.5876 38.5808 30.5876H43.4807C43.5728 30.5876 43.6612 30.6236 43.7264 30.6878C43.7915 30.7519 43.8281 30.839 43.8281 30.9297V36.5152C43.831 36.5619 43.8242 36.6086 43.808 36.6526C43.7919 36.6966 43.7668 36.7368 43.7342 36.7708C43.7016 36.8048 43.6623 36.8319 43.6187 36.8504C43.5751 36.8689 43.5281 36.8784 43.4807 36.8783Z" fill="white"></path><path d="M26.9242 25.0301C26.7664 24.0038 26.3868 23.0229 25.8109 22.1535C25.2403 21.3294 24.447 20.6789 23.5206 20.2754C22.3277 19.793 21.044 19.5669 19.7553 19.6121C19.0055 19.6069 18.2579 19.6913 17.5287 19.8635C16.8871 20.0076 16.2568 20.1966 15.6425 20.429C15.1499 20.6202 14.6753 20.8538 14.2243 21.1272L13.5152 21.5601L13.3167 21.7137C12.7086 21.114 11.9855 20.6394 11.1894 20.3173C9.88593 19.8609 8.49334 19.7056 7.11921 19.8635C5.79917 20.0396 4.49351 20.3079 3.2121 20.6664C2.07046 20.9945 1.35427 21.183 0.496267 21.4414C0.350821 21.4912 0.225794 21.5862 0.140081 21.7122C0.0543685 21.8382 0.0126296 21.9882 0.0211732 22.1396V39.2243C0.0202169 39.2869 0.0320358 39.3491 0.0559292 39.4071C0.0798226 39.4651 0.115304 39.5178 0.160271 39.5621C0.205238 39.6064 0.258775 39.6413 0.317708 39.6648C0.376642 39.6884 0.439772 39.7 0.503358 39.6991H3.09864C3.16164 39.6991 3.224 39.6867 3.28211 39.6628C3.34022 39.6389 3.39291 39.6038 3.43712 39.5596C3.48133 39.5154 3.51618 39.463 3.53963 39.4054C3.56308 39.3479 3.57468 39.2863 3.57374 39.2243V23.9199C3.56636 23.8551 3.58119 23.7896 3.61587 23.734C3.65055 23.6783 3.7031 23.6356 3.76519 23.6127C3.88574 23.5708 4.74374 23.3544 5.18338 23.2357C5.71712 23.0962 6.25955 22.9913 6.80721 22.9215C7.60595 22.8087 8.4198 22.861 9.19686 23.0751C9.81138 23.3059 10.3438 23.7088 10.7285 24.2341C11.1564 24.8646 11.4395 25.5794 11.5581 26.3287C11.6884 27.0461 11.7666 27.7717 11.7921 28.5001C11.7921 28.8003 11.7921 29.1075 11.7921 29.4357V39.2243C11.794 39.3496 11.8454 39.4694 11.9354 39.558C12.0254 39.6467 12.147 39.6973 12.2743 39.6991H14.8909C15.0182 39.6973 15.1398 39.6467 15.2298 39.558C15.3199 39.4694 15.3712 39.3496 15.3731 39.2243V33.8412V28.6607C15.3731 28.1719 15.3731 27.7041 15.3163 27.2643V27.2014C15.2811 26.4784 15.203 25.7581 15.0823 25.044C15.0278 24.7178 14.9496 24.3958 14.8483 24.0805C14.8483 23.9828 14.8909 23.9549 14.9334 23.9199C15.3786 23.6364 15.8542 23.4023 16.3516 23.2218C17.3043 22.8772 18.3154 22.7161 19.3298 22.747C20.0603 22.7208 20.7873 22.8568 21.4571 23.145C22.0088 23.4144 22.464 23.843 22.7618 24.3738C23.1126 25.0248 23.334 25.7357 23.4142 26.4683C23.5559 27.4562 23.6317 28.452 23.6411 29.4496V39.2243C23.6411 39.3484 23.6912 39.4673 23.7803 39.5551C23.8694 39.6428 23.9902 39.6921 24.1162 39.6921H26.7328C26.7958 39.693 26.8583 39.6816 26.9168 39.6585C26.9752 39.6354 27.0284 39.6011 27.0733 39.5576C27.1182 39.514 27.1538 39.4621 27.1781 39.4049C27.2024 39.3477 27.215 39.2863 27.215 39.2243V28.6607C27.2216 27.4446 27.1243 26.2301 26.9242 25.0301Z" fill="white"></path><path d="M104.372 34.9583V28.6746C104.372 28.6746 104.372 27.718 104.315 27.2782C104.255 26.5439 104.149 25.814 103.996 25.0928C103.904 24.7507 103.819 24.4575 103.727 24.1363C103.391 23.2478 102.893 22.4269 102.259 21.7136C101.647 21.1187 100.925 20.6447 100.132 20.3172C98.8362 19.8274 97.4376 19.6618 96.0613 19.8355C93.5674 20.2517 91.0966 20.7923 88.6584 21.4553C88.5129 21.5051 88.3879 21.6001 88.3022 21.7261C88.2165 21.8521 88.1747 22.0021 88.1833 22.1535V39.2242C88.1833 39.3502 88.2341 39.4709 88.3245 39.5599C88.4149 39.649 88.5376 39.699 88.6655 39.699H91.282C91.4099 39.699 91.5326 39.649 91.623 39.5599C91.7134 39.4709 91.7642 39.3502 91.7642 39.2242V23.9199C91.7541 23.8547 91.7678 23.788 91.8029 23.7318C91.8379 23.6756 91.892 23.6334 91.9557 23.6127C92.1046 23.5708 95.409 22.9145 95.7919 22.9145C96.5886 22.8124 97.398 22.8646 98.1744 23.0681C98.7909 23.2988 99.3257 23.7016 99.7132 24.2271C100.139 24.8581 100.419 25.5729 100.536 26.3217C100.669 27.0386 100.748 27.7645 100.77 28.493C100.77 28.7933 100.77 29.1005 100.77 29.4286V37.1297V39.2242C100.77 39.3502 100.821 39.4709 100.911 39.5599C101.001 39.649 101.124 39.699 101.252 39.699H103.904C103.967 39.6999 104.029 39.6885 104.088 39.6654C104.146 39.6423 104.2 39.608 104.244 39.5645C104.289 39.521 104.325 39.4691 104.349 39.4119C104.374 39.3546 104.386 39.2932 104.386 39.2312V34.9583H104.372Z" fill="white"></path><path d="M121.83 38.6658C121.83 38.6658 121.575 37.5068 121.568 37.4859L121.433 36.8854L121.355 36.5782C121.338 36.533 121.312 36.4917 121.278 36.457C121.244 36.4222 121.203 36.3948 121.158 36.3764C121.112 36.3581 121.064 36.3491 121.015 36.3502C120.966 36.3513 120.917 36.3624 120.873 36.3827L119.909 36.7318C119.067 36.9818 118.192 37.1019 117.313 37.0879C116.765 37.098 116.219 37.0202 115.697 36.8575C115.239 36.7055 114.837 36.4238 114.541 36.0476C114.187 35.6044 113.944 35.0854 113.832 34.5325C113.659 33.7318 113.581 32.9142 113.598 32.0959V23.0194H119.129C119.671 23.0175 120.19 22.8041 120.573 22.4259C120.956 22.0477 121.171 21.5355 121.171 21.0016V20.5338C121.171 20.4718 121.158 20.4104 121.134 20.3532C121.11 20.2959 121.074 20.2441 121.029 20.2005C120.984 20.157 120.931 20.1227 120.873 20.0996C120.814 20.0765 120.752 20.0651 120.689 20.066H113.598V14.5224C113.598 14.4536 113.582 14.3857 113.553 14.3233C113.524 14.2609 113.481 14.2055 113.427 14.161C113.374 14.1165 113.312 14.084 113.244 14.0656C113.177 14.0472 113.106 14.0435 113.038 14.0546L110.421 14.5014C110.31 14.5211 110.209 14.5788 110.136 14.6643C110.064 14.7498 110.024 14.8578 110.024 14.9692V20.059H108.606C108.48 20.059 108.359 20.1083 108.27 20.196C108.181 20.2838 108.131 20.4028 108.131 20.5268V22.5376C108.131 22.6623 108.18 22.782 108.269 22.8709C108.358 22.9597 108.479 23.0105 108.606 23.0124H110.024V32.1308C110.006 33.3025 110.116 34.4728 110.35 35.6217C110.531 36.5353 110.918 37.3969 111.485 38.1422C112.038 38.8345 112.774 39.3635 113.612 39.6712C114.691 40.043 115.83 40.2158 116.973 40.1809C117.621 40.177 118.268 40.128 118.909 40.0343C119.285 39.9924 119.972 39.8248 119.972 39.8248C120.529 39.7136 121.067 39.5231 121.568 39.2593C121.674 39.2046 121.758 39.1159 121.805 39.008C121.853 38.9001 121.862 38.7794 121.83 38.6658Z" fill="white"></path><path d="M162.248 38.7285L161.759 36.6968L161.681 36.3966C161.663 36.3511 161.636 36.3096 161.602 36.2746C161.567 36.2397 161.526 36.2119 161.48 36.193C161.434 36.1741 161.385 36.1645 161.336 36.1646C161.286 36.1648 161.237 36.1748 161.192 36.1941C159.777 36.6833 158.299 36.9748 156.802 37.0598C155.655 37.093 154.511 36.93 153.42 36.5781C152.639 36.2615 151.95 35.7603 151.413 35.1189C150.864 34.455 150.469 33.6804 150.258 32.8497C150.005 31.8994 149.881 30.9205 149.889 29.9383C149.889 27.5644 150.421 25.7491 151.491 24.5203C152.064 23.8901 152.774 23.3961 153.569 23.0756C154.364 22.7551 155.222 22.6165 156.079 22.6701C156.837 22.6641 157.593 22.739 158.334 22.8935C158.836 23.0053 159.363 22.9227 159.805 22.6628C160.247 22.4029 160.571 21.9856 160.71 21.4972L160.866 20.9246C160.899 20.8097 160.887 20.6868 160.834 20.5798C160.78 20.4727 160.688 20.3891 160.575 20.3451C159.869 20.0978 159.143 19.9109 158.405 19.7866C157.518 19.634 156.618 19.5569 155.718 19.5562C154.351 19.5528 152.998 19.831 151.747 20.3731C150.599 20.8459 149.57 21.5609 148.733 22.4676C147.891 23.4293 147.243 24.5408 146.825 25.7422C146.365 27.0915 146.139 28.5079 146.159 29.9313C146.14 31.3344 146.346 32.7316 146.769 34.0716C147.15 35.2692 147.786 36.3735 148.634 37.3112C149.492 38.2222 150.542 38.9371 151.711 39.4058C153.199 39.9124 154.768 40.1489 156.342 40.1039C158.245 40.1455 160.141 39.8475 161.936 39.2242C161.991 39.2147 162.044 39.1938 162.09 39.1629C162.136 39.1321 162.176 39.0919 162.205 39.0451C162.234 38.9983 162.254 38.9459 162.261 38.8914C162.268 38.8368 162.264 38.7813 162.248 38.7285Z" fill="white"></path><path d="M139.812 22.0421C138.394 20.3943 136.33 19.5681 133.622 19.5635C132.463 19.5651 131.315 19.783 130.239 20.2058C129.131 20.6347 128.129 21.2945 127.304 22.1398C126.407 23.0695 125.712 24.1694 125.261 25.3724C124.723 26.8351 124.463 28.3831 124.496 29.9386C124.481 31.3289 124.682 32.7132 125.091 34.044C125.455 35.2381 126.077 36.3408 126.914 37.2766C127.777 38.219 128.849 38.9526 130.048 39.42C131.1 39.7915 132.201 40.0148 133.317 40.0833C134.235 40.1462 135.157 40.1462 136.075 40.0833C137.945 39.9624 139.778 39.5107 141.486 38.7498C141.622 38.6745 141.723 38.5507 141.769 38.404C141.815 38.2572 141.803 38.0986 141.734 37.9608L141.138 36.1316C141.084 36.0215 140.993 35.9328 140.881 35.8796C140.769 35.8264 140.642 35.8118 140.521 35.8383C139.185 36.4784 137.745 36.8825 136.267 37.0322C136.075 37.0322 135.657 37.0322 135.635 37.0322C132.799 37.0322 131.055 36.5225 129.998 35.4683C128.876 34.1804 128.253 32.5431 128.24 30.8462H141.422C141.489 30.8553 141.558 30.8499 141.623 30.8304C141.688 30.811 141.749 30.778 141.8 30.7336C141.851 30.6892 141.892 30.6345 141.919 30.5733C141.947 30.512 141.961 30.4456 141.961 30.3785V29.5965C141.961 26.2172 141.244 23.6991 139.812 22.0421ZM137.876 28.0046H128.722C128.672 28.0051 128.622 27.9949 128.576 27.9748C128.531 27.9546 128.49 27.9249 128.457 27.8878C128.424 27.8507 128.399 27.8069 128.385 27.7596C128.371 27.7123 128.367 27.6625 128.374 27.6136C128.461 27.0633 128.603 26.523 128.8 26.0008C129.03 25.3629 129.376 24.7714 129.821 24.2553C130.263 23.7439 130.806 23.3259 131.416 23.0265C132.091 22.6997 132.835 22.5369 133.586 22.5517C134.242 22.5232 134.895 22.6475 135.492 22.9144C136.09 23.1813 136.615 23.5833 137.025 24.0878C137.824 25.1069 138.251 26.3612 138.238 27.6485C138.239 27.6955 138.23 27.7423 138.212 27.7859C138.194 27.8295 138.168 27.8692 138.134 27.9024C138.1 27.9357 138.06 27.9619 138.016 27.9794C137.971 27.997 137.924 28.0056 137.876 28.0046Z" fill="white"></path><path d="M177.756 43.9998C177.551 43.9993 177.35 43.9438 177.175 43.8392L171.381 40.4041C171.215 40.306 171.077 40.1669 170.981 40.0005C170.885 39.834 170.835 39.6459 170.835 39.4546V14.1312C170.835 13.9399 170.885 13.7517 170.981 13.5853C171.077 13.4188 171.215 13.2797 171.381 13.1816L182.961 6.30445C183.133 6.2064 183.329 6.15479 183.528 6.15479C183.727 6.15479 183.923 6.2064 184.095 6.30445C184.269 6.40072 184.414 6.54062 184.515 6.70987C184.616 6.87913 184.669 7.0717 184.67 7.26795V39.4546C184.67 39.6459 184.62 39.834 184.524 40.0005C184.429 40.1669 184.291 40.306 184.124 40.4041L178.359 43.8392C178.177 43.9458 177.968 44.0014 177.756 43.9998ZM173.09 38.8262L177.756 41.619L182.415 38.8262V9.20194L173.09 14.7875V38.8262Z" fill="#C5112D"></path><path d="M188.285 37.8281C188.09 37.8264 187.897 37.7785 187.725 37.6885C187.552 37.5902 187.408 37.4487 187.309 37.2783C187.209 37.1079 187.157 36.9146 187.158 36.718V4.54534C187.162 4.35611 187.215 4.17113 187.313 4.0084C187.412 3.84567 187.551 3.71074 187.718 3.61675L193.504 0.18165C193.679 0.0753475 193.88 0.019043 194.085 0.019043C194.291 0.019043 194.492 0.0753475 194.667 0.18165L200.46 3.61675C200.626 3.71568 200.762 3.85516 200.857 4.02157C200.951 4.18799 201 4.37566 200.999 4.56629V29.8687C201 30.0592 200.95 30.2466 200.856 30.4129C200.761 30.5792 200.625 30.7188 200.46 30.8183L188.881 37.6885C188.7 37.7896 188.493 37.8381 188.285 37.8281ZM189.42 5.16673V34.777L198.751 29.2404V5.16673L194.085 2.37397L189.42 5.16673Z" fill="#C5112D"></path></g><defs><clipPath id="clip0_1290_36015"><rect width="201" height="44" fill="white"></rect></clipPath></defs></svg>